<svg xmlns="http://www.w3.org/2000/svg" xmlns:xlink="http://www.w3.org/1999/xlink" fill="none" version="1.1" width="512" height="512" viewBox="0 0 512 512"><g><g><rect x="0" y="0" width="512" height="512" rx="140" fill="#1BA565" fill-opacity="1"/></g><g><g><path d="M322.932,511.9999864501953L372,511.9999864501953C417.358,511.9999864501953,458.183,490.2959864501953,483.89,456.16498645019533C510.759,420.4899864501953,491.71,372.1399864501953,459.434,341.2700864501953L394.291,278.9660864501953C352.841,239.32308645019532,286.6113,242.5938164501953,249.2697,286.1277864501953L229.6234,309.0318864501953C210.5081,331.31708645019535,200,359.70798645019534,200,389.06798645019535C200,456.9609864501953,255.0385,511.9999864501953,322.932,511.9999864501953" fill-rule="evenodd" fill="#47C88B" fill-opacity="1"/></g><g><path d="M-0.000002762768417596817,324.3849864501953L-0.000002762768417596817,371.9999864501953C-0.000002762768417596817,449.3199864501953,62.680097237231585,511.9999864501953,139.99999723723158,511.9999864501953L371.9999972372316,511.9999864501953C430.0479972372316,511.9999864501953,435.45999723723156,438.6259864501953,393.5099972372316,398.50398645019527L194.29099723723158,207.96608645019532C152.8409972372316,168.32308645019532,86.61129723723158,171.5938164501953,49.26969723723158,215.12778645019532L33.736397237231586,233.2368864501953C11.967097237231583,258.6161864501953,-0.000002762768417596817,290.9489864501953,-0.000002762768417596817,324.3849864501953" fill-rule="evenodd" fill="#50E19D" fill-opacity="1"/></g><g><ellipse cx="356" cy="118" rx="70" ry="70" fill="#FFFFFF" fill-opacity="1"/></g></g></g></svg>