<svg xmlns="http://www.w3.org/2000/svg" xmlns:xlink="http://www.w3.org/1999/xlink" fill="none" version="1.1" width="512" height="512" viewBox="0 0 512 512"><defs><clipPath id="master_svg0_38_06"><rect x="0" y="0" width="512" height="511.9999694824219" rx="0"/></clipPath></defs><g><rect x="0" y="0" width="512" height="512" rx="0" fill="#EFEFEF" fill-opacity="1"/><g clip-path="url(#master_svg0_38_06)"><g><g><rect x="0" y="0" width="512" height="512" rx="100" fill="#1BA565" fill-opacity="1"/></g><g><g><path d="M512.000002861023,411.9999406738281C512.000002861023,398.9349406738281,506.660002861023,386.43794067382817,497.21800286102297,377.40794067382814L394.29100286102295,278.9660406738281C352.84100286102296,239.32304067382813,286.611302861023,242.59377067382812,249.26970286102295,286.1277406738281L224.09740286102294,315.47424067382815C208.54794286102296,333.6023406738281,200.00000286102295,356.6969406738281,200.00000286102295,380.5799406738281L200.00000286102295,411.9999406738281C200.00000286102295,467.22794067382813,244.77150286102295,511.9999406738281,300.00000286102295,511.9999406738281L412.07900286102296,511.9999406738281C412.1310028610229,511.9999406738281,412.18200286102297,511.9999406738281,412.234002861023,511.9999406738281C467.36600286102293,511.87194067382814,512.000002861023,467.1419406738281,512.000002861023,411.9999406738281Z" fill-rule="evenodd" fill="#47C88B" fill-opacity="1"/></g><g><path d="M0.00000286102294921875,309.57997119140623L0.00000286102294921875,411.99997119140625C0.00000286102294921875,467.22897119140623,44.77150286102295,511.99997119140625,100.00000286102295,511.99997119140625L412.100002861023,511.99997119140625C412.13700286102295,511.99997119140625,412.1740028610229,511.99997119140625,412.21200286102294,511.99997119140625C438.38200286102295,511.94497119140624,463.4890028610229,501.63197119140625,482.1430028610229,483.27397119140625L194.29100286102295,207.96607119140626C152.84100286102296,168.32307119140626,86.61130286102295,171.59380119140624,49.26970286102295,215.12777119140625L24.09740286102295,244.47427119140625C8.54794286102295,262.60237119140623,0.00000286102294921875,285.69697119140625,0.00000286102294921875,309.57997119140623Z" fill-rule="evenodd" fill="#50E19D" fill-opacity="1"/></g><g><ellipse cx="356.00000286102295" cy="118" rx="70" ry="70" fill="#FFFFFF" fill-opacity="1"/></g></g></g></g></g></svg>